<svg width="69" height="69" viewBox="0 0 69 69" fill="none" xmlns="http://www.w3.org/2000/svg">
<g clip-path="url(#clip0)">
<path d="M34.28 68.56C53.2123 68.56 68.56 53.2123 68.56 34.28C68.56 15.3477 53.2123 0 34.28 0C15.3477 0 0 15.3477 0 34.28C0 53.2123 15.3477 68.56 34.28 68.56Z" fill="white"/>
<path d="M53.01 47.0498C53.38 47.0498 53.68 46.7498 53.68 46.3798V22.9598C53.68 22.7798 53.61 22.6098 53.49 22.4898L46.39 15.3898C46.27 15.2698 46.1 15.1998 45.92 15.1998H30.96V15.0698C30.96 13.9698 30.06 13.0698 28.96 13.0698H13.17C12.07 13.0698 11.17 13.9698 11.17 15.0698V36.5398C11.17 37.6398 12.07 38.5398 13.17 38.5398H18.27V54.8998C18.27 55.2698 18.57 55.5698 18.94 55.5698H53.01C53.38 55.5698 53.68 55.2698 53.68 54.8998V49.9298C53.68 49.5598 53.38 49.2598 53.01 49.2598C52.64 49.2598 52.34 49.5598 52.34 49.9298V54.2298H19.6V38.5298H28.96C30.06 38.5298 30.96 37.6298 30.96 36.5298V25.0898C30.96 24.7198 30.66 24.4198 30.29 24.4198C29.92 24.4198 29.62 24.7198 29.62 25.0898V36.5398C29.62 36.9098 29.32 37.2098 28.95 37.2098H13.17C12.8 37.2098 12.5 36.9098 12.5 36.5398V15.0598C12.5 14.6898 12.8 14.3898 13.17 14.3898H28.96C29.33 14.3898 29.63 14.6898 29.63 15.0598V21.5398C29.63 21.9098 29.93 22.2098 30.3 22.2098C30.67 22.2098 30.97 21.9098 30.97 21.5398V16.5298H45.26C45.26 16.5398 45.26 16.5598 45.26 16.5698V22.9598C45.26 23.3298 45.56 23.6298 45.93 23.6298H52.32C52.34 23.6298 52.35 23.6298 52.36 23.6298V46.3898C52.34 46.7498 52.64 47.0498 53.01 47.0498ZM46.58 22.2898V17.4598L51.41 22.2898H46.58Z" fill="black"/>
<path d="M27.63 43.5898H23.2C22.83 43.5898 22.53 43.8898 22.53 44.2598C22.53 44.6298 22.83 44.9298 23.2 44.9298H27.64C28.01 44.9298 28.31 44.6298 28.31 44.2598C28.3 43.8798 28 43.5898 27.63 43.5898Z" fill="black"/>
<path d="M27.63 47.1299H23.2C22.83 47.1299 22.53 47.4299 22.53 47.7999C22.53 48.1699 22.83 48.4699 23.2 48.4699H27.64C28.01 48.4699 28.31 48.1699 28.31 47.7999C28.3 47.4299 28 47.1299 27.63 47.1299Z" fill="black"/>
<path d="M40.94 33.6499C38.22 33.6499 35.68 34.7299 33.8 36.6899C33.55 36.9599 33.55 37.3799 33.82 37.6299C34.09 37.8799 34.51 37.8799 34.76 37.6099C36.39 35.9099 38.58 34.9799 40.94 34.9799C45.66 34.9799 49.5 38.8199 49.5 43.5399C49.5 48.2599 45.66 52.0999 40.94 52.0999C36.22 52.0999 32.3801 48.2599 32.3801 43.5399C32.3801 42.1499 32.7 40.8199 33.34 39.5899C33.51 39.2599 33.3801 38.8599 33.0601 38.6899C32.7301 38.5199 32.33 38.6499 32.16 38.9699C31.43 40.3699 31.05 41.9499 31.05 43.5399C31.05 48.9999 35.49 53.4299 40.94 53.4299C46.39 53.4299 50.8301 48.9899 50.8301 43.5399C50.8301 38.0899 46.4 33.6499 40.94 33.6499Z" fill="black"/>
<path d="M42.46 42.9597L41.43 42.9297V39.2297H43.78C44.15 39.2297 44.45 38.9297 44.45 38.5597C44.45 38.1897 44.15 37.8897 43.78 37.8897H41.43V37.1397C41.43 36.7697 41.13 36.4697 40.76 36.4697C40.39 36.4697 40.09 36.7697 40.09 37.1397V37.8897H39.42C38.32 37.8897 37.42 38.7897 37.42 39.8897V42.1997C37.42 43.2997 38.31 44.1897 39.41 44.1997L40.09 44.2197V47.8397H38.09C37.72 47.8397 37.42 48.1397 37.42 48.5097C37.42 48.8797 37.72 49.1797 38.09 49.1797H40.09V49.9297C40.09 50.2997 40.39 50.5997 40.76 50.5997C41.13 50.5997 41.43 50.2997 41.43 49.9297V49.1797H42.45C43.55 49.1797 44.45 48.2797 44.45 47.1797V44.9597C44.45 43.8597 43.56 42.9697 42.46 42.9597ZM40.1 42.8997L39.45 42.8797C39.44 42.8797 39.44 42.8797 39.43 42.8797C39.06 42.8797 38.76 42.5797 38.76 42.2097V39.8997C38.76 39.5297 39.06 39.2297 39.43 39.2297H40.1V42.8997ZM43.12 47.1797C43.12 47.5497 42.82 47.8497 42.45 47.8497H41.43V44.2697L42.43 44.2997C42.44 44.2997 42.44 44.2997 42.45 44.2997C42.82 44.2997 43.12 44.5997 43.12 44.9697V47.1797Z" fill="black"/>
<path d="M28.17 15.1899H13.97C13.6 15.1899 13.3 15.4899 13.3 15.8599V19.4099C13.3 19.7799 13.6 20.0799 13.97 20.0799H28.17C28.54 20.0799 28.84 19.7799 28.84 19.4099V15.8599C28.83 15.4899 28.53 15.1899 28.17 15.1899ZM27.5 18.7399H14.63V16.5199H27.5V18.7399Z" fill="black"/>
<path d="M16.81 20.8696H13.97C13.6 20.8696 13.3 21.1696 13.3 21.5396V24.3796C13.3 24.7496 13.6 25.0496 13.97 25.0496H16.81C17.18 25.0496 17.48 24.7496 17.48 24.3796V21.5396C17.47 21.1696 17.18 20.8696 16.81 20.8696ZM16.14 23.7096H14.63V22.1996H16.14V23.7096Z" fill="black"/>
<path d="M22.4901 20.8696H19.6501C19.2801 20.8696 18.9801 21.1696 18.9801 21.5396V24.3796C18.9801 24.7496 19.2801 25.0496 19.6501 25.0496H22.4901C22.8601 25.0496 23.1601 24.7496 23.1601 24.3796V21.5396C23.1501 21.1696 22.8501 20.8696 22.4901 20.8696ZM21.8201 23.7096H20.3101V22.1996H21.8201V23.7096Z" fill="black"/>
<path d="M28.17 20.8696H25.33C24.96 20.8696 24.66 21.1696 24.66 21.5396V24.3796C24.66 24.7496 24.96 25.0496 25.33 25.0496H28.17C28.54 25.0496 28.84 24.7496 28.84 24.3796V21.5396C28.83 21.1696 28.53 20.8696 28.17 20.8696ZM27.5 23.7096H25.99V22.1996H27.5V23.7096Z" fill="black"/>
<path d="M16.81 26.5498H13.97C13.6 26.5498 13.3 26.8498 13.3 27.2198V30.0598C13.3 30.4298 13.6 30.7298 13.97 30.7298H16.81C17.18 30.7298 17.48 30.4298 17.48 30.0598V27.2198C17.47 26.8498 17.18 26.5498 16.81 26.5498ZM16.14 29.3898H14.63V27.8798H16.14V29.3898Z" fill="black"/>
<path d="M22.4901 26.5498H19.6501C19.2801 26.5498 18.9801 26.8498 18.9801 27.2198V30.0598C18.9801 30.4298 19.2801 30.7298 19.6501 30.7298H22.4901C22.8601 30.7298 23.1601 30.4298 23.1601 30.0598V27.2198C23.1501 26.8498 22.8501 26.5498 22.4901 26.5498ZM21.8201 29.3898H20.3101V27.8798H21.8201V29.3898Z" fill="black"/>
<path d="M16.81 32.23H13.97C13.6 32.23 13.3 32.53 13.3 32.9V35.74C13.3 36.11 13.6 36.41 13.97 36.41H16.81C17.18 36.41 17.48 36.11 17.48 35.74V32.9C17.47 32.53 17.18 32.23 16.81 32.23ZM16.14 35.07H14.63V33.56H16.14V35.07Z" fill="black"/>
<path d="M22.4901 32.23H19.6501C19.2801 32.23 18.9801 32.53 18.9801 32.9V35.74C18.9801 36.11 19.2801 36.41 19.6501 36.41H22.4901C22.8601 36.41 23.1601 36.11 23.1601 35.74V32.9C23.1501 32.53 22.8501 32.23 22.4901 32.23ZM21.8201 35.07H20.3101V33.56H21.8201V35.07Z" fill="black"/>
<path d="M28.17 26.5498H25.33C24.96 26.5498 24.66 26.8498 24.66 27.2198V35.7398C24.66 36.1098 24.96 36.4098 25.33 36.4098H28.17C28.54 36.4098 28.84 36.1098 28.84 35.7398V27.2198C28.83 26.8498 28.53 26.5498 28.17 26.5498ZM27.5 35.0698H25.99V27.8798H27.5V35.0698Z" fill="black"/>
<path d="M50.63 28.7596L47 25.3096C46.73 25.0596 46.31 25.0696 46.06 25.3296C45.81 25.5996 45.82 26.0196 46.08 26.2696L49.21 29.2396L48.66 29.7896L39.09 20.2196C39 20.1296 38.88 20.0596 38.75 20.0396L36.28 19.5496L35.09 18.2396C34.84 17.9696 34.42 17.9496 34.15 18.1896C33.88 18.4396 33.86 18.8596 34.1 19.1296C34.1 19.1296 35.47 20.6296 35.51 20.6596L35.94 22.8296C35.97 22.9596 36.03 23.0796 36.12 23.1696L46.72 33.7696C47.11 34.1596 47.62 34.3496 48.13 34.3496C48.64 34.3496 49.15 34.1596 49.54 33.7696L49.67 33.6396C50.45 32.8596 50.45 31.5996 49.67 30.8196L49.58 30.7296L50.62 29.6896C50.9 29.4496 50.9 29.0096 50.63 28.7596ZM37.23 22.3796L36.96 21.0496L38.29 21.3196L44.7 27.7296L43.63 28.7996L37.23 22.3796ZM48.76 32.7196L48.63 32.8496C48.37 33.1096 47.95 33.1096 47.69 32.8496L44.58 29.7396L45.65 28.6696L48.76 31.7796C49.02 32.0396 49.02 32.4596 48.76 32.7196Z" fill="black"/>
</g>
<defs>
<clipPath id="clip0">
<rect width="68.56" height="68.56" fill="white"/>
</clipPath>
</defs>
</svg>
