<svg width="16" height="16" viewBox="0 0 16 16" fill="none" xmlns="http://www.w3.org/2000/svg">
<path d="M8 10C8.53043 10 9.03914 9.78929 9.41421 9.41421C9.78929 9.03914 10 8.53043 10 8C10 7.46957 9.78929 6.96086 9.41421 6.58579C9.03914 6.21071 8.53043 6 8 6C7.46957 6 6.96086 6.21071 6.58579 6.58579C6.21071 6.96086 6 7.46957 6 8C6 8.53043 6.21071 9.03914 6.58579 9.41421C6.96086 9.78929 7.46957 10 8 10Z" fill="black"/>
<path d="M0 3.2C0 2.88174 0.105357 2.57652 0.292893 2.35147C0.48043 2.12643 0.734784 2 1 2H15C15.2652 2 15.5196 2.12643 15.7071 2.35147C15.8946 2.57652 16 2.88174 16 3.2V12.8C16 13.1183 15.8946 13.4235 15.7071 13.6485C15.5196 13.8736 15.2652 14 15 14H1C0.734784 14 0.48043 13.8736 0.292893 13.6485C0.105357 13.4235 0 13.1183 0 12.8V3.2ZM3 3.2C3 3.83652 2.78929 4.44697 2.41421 4.89706C2.03914 5.34714 1.53043 5.6 1 5.6V10.4C1.53043 10.4 2.03914 10.6529 2.41421 11.1029C2.78929 11.553 3 12.1635 3 12.8H13C13 12.1635 13.2107 11.553 13.5858 11.1029C13.9609 10.6529 14.4696 10.4 15 10.4V5.6C14.4696 5.6 13.9609 5.34714 13.5858 4.89706C13.2107 4.44697 13 3.83652 13 3.2H3Z" fill="black"/>
</svg>
