<svg width="69" height="69" viewBox="0 0 69 69" fill="none" xmlns="http://www.w3.org/2000/svg">
<g clip-path="url(#clip0)">
<path d="M68.3035 38.465C70.6171 19.6747 57.26 2.56661 38.4697 0.253081C19.6793 -2.06045 2.57127 11.2966 0.257741 30.087C-2.05579 48.8773 11.3013 65.9853 30.0916 68.2989C48.882 70.6124 65.99 57.2553 68.3035 38.465Z" fill="white"/>
<path d="M56.8 20.9696L34.59 10.2496C34.39 10.1596 34.16 10.1596 33.97 10.2496L11.76 20.9696C11.51 21.0896 11.36 21.3396 11.36 21.6196V47.6496C11.36 47.9196 11.52 48.1796 11.76 48.2996L33.97 59.0196C34.07 59.0696 34.17 59.0896 34.28 59.0896C34.39 59.0896 34.49 59.0696 34.59 59.0196L56.8 48.2996C57.05 48.1796 57.2 47.9296 57.2 47.6496V21.6196C57.2 21.3396 57.04 21.0896 56.8 20.9696ZM34.28 11.6896L54.84 21.6096L48.88 24.4896C48.84 24.4596 48.8 24.4296 48.76 24.4096L28.34 14.5496L34.28 11.6896ZM26.72 15.3696L47.25 25.2796L43.05 27.3096L22.52 17.3996L26.72 15.3696ZM47.73 26.6396V34.1396L43.8 36.0396V28.5396L47.73 26.6396ZM55.77 47.1996L34.99 57.2296V32.7896L39.95 30.3996C40.31 30.2296 40.46 29.7996 40.28 29.4396C40.11 29.0796 39.68 28.9296 39.32 29.1096L34.27 31.5496L32.28 30.5896C31.92 30.4196 31.5 30.5696 31.32 30.9196C31.15 31.2796 31.3 31.6996 31.65 31.8796L33.54 32.7896V57.2296L12.79 47.1996V22.7596L28.61 30.3996C28.71 30.4496 28.82 30.4696 28.92 30.4696C29.19 30.4696 29.44 30.3196 29.57 30.0596C29.74 29.6996 29.59 29.2796 29.24 29.0996L13.73 21.6096L20.85 18.1696L42.37 28.5596L42.38 28.5696V37.1696C42.38 37.4196 42.51 37.6496 42.72 37.7796C42.84 37.8496 42.97 37.8896 43.1 37.8896C43.21 37.8896 43.31 37.8696 43.41 37.8196L48.77 35.2296C49.02 35.1096 49.17 34.8596 49.17 34.5796V25.9396L55.78 22.7496L55.77 47.1996Z" fill="black"/>
<path d="M18.7 44.4195L15.44 42.8495C15.08 42.6795 14.66 42.8295 14.48 43.1795C14.31 43.5395 14.46 43.9595 14.81 44.1395L18.07 45.7095C18.17 45.7595 18.28 45.7795 18.38 45.7795C18.65 45.7795 18.9 45.6295 19.03 45.3695C19.21 45.0195 19.06 44.5995 18.7 44.4195Z" fill="black"/>
<path d="M21.7 42.4696L15.45 39.4496C15.09 39.2796 14.67 39.4296 14.49 39.7796C14.32 40.1396 14.47 40.5596 14.82 40.7396L21.07 43.7596C21.17 43.8096 21.28 43.8296 21.38 43.8296C21.65 43.8296 21.9 43.6796 22.03 43.4196C22.21 43.0696 22.06 42.6396 21.7 42.4696Z" fill="black"/>
</g>
<defs>
<clipPath id="clip0">
<rect width="68.55" height="68.55" fill="white"/>
</clipPath>
</defs>
</svg>
