<svg width="69" height="69" viewBox="0 0 69 69" fill="none" xmlns="http://www.w3.org/2000/svg">
<g clip-path="url(#clip0)">
<path d="M68.447 37.0559C69.9825 18.1861 55.9301 1.64437 37.0603 0.108957C18.1904 -1.42645 1.64871 12.6259 0.113299 31.4957C-1.42211 50.3656 12.6302 66.9073 31.5001 68.4427C50.3699 69.9781 66.9116 55.9258 68.447 37.0559Z" fill="white"/>
<path d="M37.01 56.3695H31.31C29.98 56.3695 28.46 55.2295 28.46 52.9495V48.9595C28.46 47.0595 27.51 45.3495 25.99 44.0195C22.57 41.3595 20.86 37.5595 20.86 33.3795C21.05 26.1595 26.94 20.4595 33.97 20.2695C37.58 20.2695 41 21.5995 43.47 24.0695C45.94 26.5395 47.46 29.9595 47.46 33.5695C47.46 37.5595 45.75 41.3595 42.52 43.8295C40.81 45.1595 39.86 47.2495 39.86 49.1495V53.5195C39.86 55.0395 38.53 56.3695 37.01 56.3695ZM34.16 22.1595C28.08 22.1595 22.95 27.2895 22.76 33.3695C22.76 36.9795 24.28 40.3995 27.13 42.4895C29.22 44.1995 30.36 46.4795 30.36 48.9495V52.9395C30.36 53.3195 30.36 54.4595 31.31 54.4595H37.01C37.58 54.4595 37.96 54.0795 37.96 53.5095V49.1395C37.96 46.6695 39.29 44.0095 41.38 42.2995C44.04 40.2095 45.56 36.9795 45.56 33.5595C45.56 30.5195 44.42 27.6695 42.14 25.3895C40.05 23.2995 37.2 22.1595 34.16 22.1595Z" fill="black"/>
<path d="M38.91 50.6695H29.41C28.84 50.6695 28.46 50.2895 28.46 49.7195C28.46 49.1495 28.84 48.7695 29.41 48.7695H38.91C39.48 48.7695 39.86 49.1495 39.86 49.7195C39.86 50.2895 39.48 50.6695 38.91 50.6695Z" fill="black"/>
<path d="M34.16 16.4598C33.59 16.4598 33.21 16.0798 33.21 15.5098V11.7098C33.21 11.1398 33.59 10.7598 34.16 10.7598C34.73 10.7598 35.11 11.1398 35.11 11.7098V15.5098C35.11 16.0798 34.73 16.4598 34.16 16.4598Z" fill="black"/>
<path d="M46.89 21.7799C46.7 21.7799 46.32 21.7799 46.13 21.5899C45.75 21.2099 45.75 20.6399 46.13 20.2599L48.79 17.5999C49.17 17.2199 49.74 17.2199 50.12 17.5999C50.5 17.9799 50.5 18.5499 50.12 18.9299L47.46 21.5899C47.46 21.5899 47.08 21.7799 46.89 21.7799Z" fill="black"/>
<path d="M56.0099 34.5099H52.2099C51.6399 34.5099 51.2599 34.1299 51.2599 33.5599C51.2599 32.9899 51.6399 32.6099 52.2099 32.6099H56.0099C56.5799 32.6099 56.9599 32.9899 56.9599 33.5599C56.9599 34.1299 56.5799 34.5099 56.0099 34.5099Z" fill="black"/>
<path d="M49.55 49.9098C49.36 49.9098 48.98 49.9098 48.79 49.7198L46.13 47.0598C45.75 46.6798 45.75 46.1098 46.13 45.7298C46.51 45.3498 47.08 45.3498 47.46 45.7298L50.12 48.3898C50.5 48.7698 50.5 49.3398 50.12 49.7198C50.12 49.9098 49.93 49.9098 49.55 49.9098Z" fill="black"/>
<path d="M18.76 49.9098C18.57 49.9098 18.19 49.9098 18 49.7198C17.62 49.3398 17.62 48.7698 18 48.3898L20.66 45.7298C21.04 45.3498 21.61 45.3498 21.99 45.7298C22.37 46.1098 22.37 46.6798 21.99 47.0598L19.33 49.7198C19.14 49.9098 18.95 49.9098 18.76 49.9098Z" fill="black"/>
<path d="M16.1 34.5099H12.3C11.73 34.5099 11.35 34.1299 11.35 33.5599C11.35 32.9899 11.73 32.6099 12.3 32.6099H16.1C16.67 32.6099 17.05 32.9899 17.05 33.5599C17.05 34.1299 16.67 34.5099 16.1 34.5099Z" fill="black"/>
<path d="M21.42 21.78C21.23 21.78 20.85 21.78 20.66 21.59L18 18.74C17.62 18.36 17.62 17.79 18 17.41C18.38 17.03 18.95 17.03 19.33 17.41L21.99 20.07C22.37 20.45 22.37 21.02 21.99 21.4C21.8 21.59 21.61 21.78 21.42 21.78Z" fill="black"/>
<path d="M41.76 34.5098C41.19 34.5098 40.81 34.1298 40.81 33.5598C40.81 29.9498 37.77 26.9098 34.16 26.9098C33.59 26.9098 33.21 26.5298 33.21 25.9598C33.21 25.3898 33.59 25.0098 34.16 25.0098C38.91 25.0098 42.71 28.8098 42.71 33.5598C42.71 34.1298 42.33 34.5098 41.76 34.5098Z" fill="black"/>
</g>
<defs>
<clipPath id="clip0">
<rect width="68.56" height="68.55" fill="white"/>
</clipPath>
</defs>
</svg>
