<svg width="69" height="69" viewBox="0 0 69 69" fill="none" xmlns="http://www.w3.org/2000/svg">
<g clip-path="url(#clip0)">
<path d="M68.3035 38.465C70.6171 19.6747 57.26 2.56661 38.4697 0.253081C19.6793 -2.06045 2.57127 11.2966 0.257741 30.087C-2.05579 48.8773 11.3013 65.9853 30.0916 68.2989C48.882 70.6124 65.99 57.2553 68.3035 38.465Z" fill="white"/>
<path d="M34.71 57.8199C47.5 57.8199 57.9 47.4199 57.9 34.6299C57.91 31.5599 57.3 28.5199 56.12 25.6899C56 25.3799 55.72 25.1699 55.39 25.1299C55.06 25.0899 54.74 25.2199 54.54 25.4899C54.34 25.7499 54.3 26.0999 54.43 26.4099C55.52 29.0199 56.08 31.8099 56.07 34.6399C56.07 46.4199 46.49 55.9999 34.71 55.9999C22.93 55.9999 13.35 46.4199 13.35 34.6399C13.35 22.8599 22.93 13.2799 34.71 13.2799C37.1 13.2799 39.48 13.6799 41.74 14.4599C42.05 14.5699 42.4 14.5099 42.64 14.2899C42.89 14.0799 43 13.7399 42.94 13.4199C42.88 13.0999 42.65 12.8299 42.34 12.7299C39.89 11.8799 37.3 11.4399 34.71 11.4399C21.92 11.4399 11.52 21.8399 11.52 34.6299C11.52 47.4199 21.92 57.8199 34.71 57.8199Z" fill="black"/>
<path d="M43.8 17.3997C43.44 17.0397 42.86 17.0397 42.5 17.3997C42.14 17.7597 42.14 18.3397 42.5 18.6997L46.77 22.9697C47.12 23.3197 47.69 23.3297 48.05 22.9797L55.57 15.7897C55.81 15.5597 55.91 15.2297 55.83 14.9097C55.75 14.5897 55.51 14.3297 55.19 14.2397C54.87 14.1497 54.53 14.2297 54.3 14.4597L47.42 21.0297L43.8 17.3997Z" fill="black"/>
<path d="M34.7101 25.7598C36.8801 25.7598 38.6301 27.5198 38.6301 29.6798C38.6301 30.1898 39.0401 30.5998 39.5501 30.5998C40.0601 30.5998 40.4701 30.1898 40.4701 29.6798C40.4701 26.8598 38.4201 24.4498 35.6301 23.9998V22.1798C35.6301 21.6698 35.2201 21.2598 34.7101 21.2598C34.2001 21.2598 33.7901 21.6698 33.7901 22.1798V23.9998C30.8301 24.4798 28.7301 27.1498 28.9701 30.1398C29.2101 33.1298 31.7101 35.4398 34.7101 35.4398C36.8701 35.4398 38.6201 37.1798 38.6301 39.3398C38.6401 41.4998 36.9101 43.2598 34.7501 43.2798C34.7301 43.2798 34.7201 43.2798 34.7001 43.2798C34.6801 43.2798 34.6701 43.2798 34.6501 43.2798C32.5001 43.2498 30.7801 41.5098 30.7701 39.3598C30.7701 38.8498 30.3601 38.4398 29.8501 38.4398C29.3401 38.4398 28.9301 38.8498 28.9301 39.3598C28.9301 42.1798 30.9801 44.5898 33.7701 45.0398V47.0798C33.7701 47.5898 34.1801 47.9998 34.6901 47.9998C35.2001 47.9998 35.6101 47.5898 35.6101 47.0798V45.0398C38.5701 44.5598 40.6701 41.8898 40.4301 38.8998C40.1901 35.9098 37.6901 33.5998 34.6901 33.5998C33.2801 33.6098 31.9801 32.8598 31.2701 31.6498C30.5601 30.4298 30.5601 28.9298 31.2701 27.7098C32.0001 26.4998 33.3001 25.7498 34.7101 25.7598Z" fill="black"/>
</g>
<defs>
<clipPath id="clip0">
<rect width="68.55" height="68.55" fill="white"/>
</clipPath>
</defs>
</svg>
