<svg width="69" height="69" viewBox="0 0 69 69" fill="none" xmlns="http://www.w3.org/2000/svg">
<g clip-path="url(#clip0)">
<path d="M34.28 68.56C53.2123 68.56 68.56 53.2123 68.56 34.28C68.56 15.3477 53.2123 0 34.28 0C15.3477 0 0 15.3477 0 34.28C0 53.2123 15.3477 68.56 34.28 68.56Z" fill="white"/>
<path d="M24.9701 43.09C25.3301 43.09 25.6101 42.8 25.6101 42.45V41.87C25.6101 41.51 25.3201 41.23 24.9701 41.23C24.6101 41.23 24.3301 41.52 24.3301 41.87V42.45C24.3301 42.8 24.6101 43.09 24.9701 43.09Z" fill="black"/>
<path d="M24.9701 45.84C25.3301 45.84 25.6101 45.55 25.6101 45.2V44.62C25.6101 44.26 25.3201 43.98 24.9701 43.98C24.6101 43.98 24.3301 44.27 24.3301 44.62V45.2C24.3301 45.56 24.6101 45.84 24.9701 45.84Z" fill="black"/>
<path d="M24.9701 48.6002C25.3301 48.6002 25.6101 48.3102 25.6101 47.9602V47.3802C25.6101 47.0202 25.3201 46.7402 24.9701 46.7402C24.6101 46.7402 24.3301 47.0302 24.3301 47.3802V47.9602C24.3301 48.3102 24.6101 48.6002 24.9701 48.6002Z" fill="black"/>
<path d="M24.9701 51.3502C25.3301 51.3502 25.6101 51.0602 25.6101 50.7102V50.1302C25.6101 49.7702 25.3201 49.4902 24.9701 49.4902C24.6101 49.4902 24.3301 49.7802 24.3301 50.1302V50.7102C24.3301 51.0602 24.6101 51.3502 24.9701 51.3502Z" fill="black"/>
<path d="M28.15 21C27.79 21 27.51 21.29 27.51 21.64V23C27.51 23.36 27.8 23.64 28.15 23.64C28.51 23.64 28.79 23.35 28.79 23V21.64C28.79 21.29 28.51 21 28.15 21Z" fill="black"/>
<path d="M30.29 21C29.93 21 29.65 21.29 29.65 21.64V23C29.65 23.36 29.94 23.64 30.29 23.64C30.65 23.64 30.93 23.35 30.93 23V21.64C30.94 21.29 30.65 21 30.29 21Z" fill="black"/>
<path d="M32.44 21C32.08 21 31.8 21.29 31.8 21.64V23C31.8 23.36 32.09 23.64 32.44 23.64C32.79 23.64 33.0801 23.35 33.0801 23V21.64C33.0801 21.29 32.79 21 32.44 21Z" fill="black"/>
<path d="M34.5801 21C34.2201 21 33.9401 21.29 33.9401 21.64V23C33.9401 23.36 34.2301 23.64 34.5801 23.64C34.9301 23.64 35.2201 23.35 35.2201 23V21.64C35.2201 21.29 34.9301 21 34.5801 21Z" fill="black"/>
<path d="M49.3601 25.46C47.7601 25.46 46.4601 26.76 46.4601 28.36C46.4601 29.96 47.7601 31.26 49.3601 31.26C50.9601 31.26 52.2601 29.96 52.2601 28.36C52.2601 26.76 50.9601 25.46 49.3601 25.46ZM49.3601 29.98C48.4701 29.98 47.7501 29.26 47.7501 28.37C47.7501 27.48 48.4701 26.76 49.3601 26.76C50.2501 26.76 50.9701 27.48 50.9701 28.37C50.9801 29.25 50.2501 29.98 49.3601 29.98Z" fill="black"/>
<path d="M52.72 44.3402C53.08 44.3402 53.36 44.0502 53.36 43.7002C53.36 43.1502 53.36 32.6002 53.36 32.0102C54.24 31.0502 54.78 29.7702 54.78 28.3602C54.78 26.9502 54.24 25.6702 53.36 24.7102V23.7302C53.36 20.6302 51.26 18.0202 48.41 17.2402C48.46 17.0902 48.49 16.9202 48.49 16.7502V12.6002C48.49 11.7502 47.8 11.0602 46.95 11.0602H46.38V10.3402C46.38 9.9802 46.09 9.7002 45.74 9.7002C45.38 9.7002 45.1 9.9902 45.1 10.3402V11.0602H44.53C43.68 11.0602 42.99 11.7502 42.99 12.6002V14.6502H25.61V14.3602C25.61 14.0002 25.32 13.7202 24.97 13.7202C24.62 13.7202 24.33 14.0102 24.33 14.3602V14.6502H24.3C23.94 14.6502 23.66 14.9402 23.66 15.2902C23.66 15.6502 23.95 15.9302 24.3 15.9302H24.32V17.1202C21.25 17.7502 18.95 20.4702 18.95 23.7102V31.8402C18.95 33.2202 20.08 34.3502 21.46 34.3502H21.98V34.9702C21.98 35.9102 22.74 36.6702 23.68 36.6702H24.33V37.2902H23.98C23.62 37.2902 23.34 37.5802 23.34 37.9302C23.34 38.2802 23.63 38.5702 23.98 38.5702H24.33V39.1902H18.23C17.61 39.1902 17.08 39.5602 16.84 40.1002H16.07C14.97 40.1002 14.07 41.0002 14.07 42.1002V48.7202C13.21 48.7602 12.53 49.4602 12.53 50.3302V52.0002C12.53 52.8902 13.25 53.6102 14.14 53.6102H53.17C54.06 53.6102 54.78 52.8902 54.78 52.0002V50.3302C54.78 49.5102 54.16 48.8302 53.36 48.7302V46.7002C53.36 46.3402 53.07 46.0602 52.72 46.0602C52.36 46.0602 52.08 46.3502 52.08 46.7002V48.7402H29.89V41.4102H52.08V43.7002C52.08 44.0502 52.37 44.3402 52.72 44.3402ZM49.36 32.4902C47.08 32.4902 45.23 30.6402 45.23 28.3602C45.23 26.0802 47.08 24.2302 49.36 24.2302C51.64 24.2302 53.49 26.0902 53.49 28.3602C53.49 30.6502 51.63 32.4902 49.36 32.4902ZM44.26 12.6102C44.26 12.4702 44.38 12.3602 44.52 12.3602H46.96C47.1 12.3602 47.22 12.4702 47.22 12.6102V16.7602C47.22 16.9002 47.1 17.0102 46.96 17.0102C45.57 17.0102 45.92 17.0102 44.52 17.0102C44.38 17.0102 44.26 16.9002 44.26 16.7602V12.6102ZM25.61 15.9502H42.97V16.7602C42.97 16.8502 42.98 16.9302 42.99 17.0102H25.68C25.66 17.0102 25.63 17.0102 25.61 17.0102V15.9502ZM20.44 22.2902H23.93C24.15 22.2902 24.33 22.4702 24.33 22.6902V29.4602C24.33 29.6802 24.15 29.8602 23.93 29.8602H20.25V23.7302C20.24 23.2702 20.3 22.7902 20.44 22.2902ZM23.27 34.9902V34.3702H26.67V34.9902C26.67 35.2102 26.48 35.4002 26.26 35.4002H23.68C23.46 35.4102 23.27 35.2202 23.27 34.9902ZM15.36 42.1202C15.36 41.7302 15.68 41.4102 16.07 41.4102H16.71V48.7402H15.36V42.1202V42.1202ZM14.14 52.3402C13.96 52.3402 13.82 52.1902 13.82 52.0202V50.3502C13.82 50.1702 13.97 50.0302 14.14 50.0302H14.72H16.71V52.1202C16.71 52.1702 16.71 52.2102 16.72 52.2602C16.72 52.2702 16.72 52.2902 16.72 52.3002C16.72 52.3202 16.72 52.3302 16.73 52.3502L14.14 52.3402ZM17.99 52.1102C17.99 51.8302 17.99 40.8102 17.99 40.7602V40.7202C17.99 40.5902 18.09 40.4902 18.22 40.4902H28.37C28.5 40.4902 28.6 40.5902 28.6 40.7202V40.7602V52.1102C28.6 52.2402 28.5 52.3402 28.37 52.3402H18.22C18.1 52.3402 17.99 52.2402 17.99 52.1102ZM53.17 50.0302C53.35 50.0302 53.49 50.1802 53.49 50.3502V52.0202C53.49 52.2002 53.34 52.3402 53.17 52.3402H29.87C29.87 52.3202 29.87 52.3102 29.88 52.2902C29.88 52.2802 29.88 52.2602 29.88 52.2502C29.88 52.2002 29.89 52.1602 29.89 52.1102V50.0202C31.17 50.0302 51.86 50.0302 53.17 50.0302ZM42.62 40.1202V30.0202C42.62 28.7702 41.6 27.7502 40.35 27.7502H37.66C37.3 27.7502 37.02 28.0402 37.02 28.3902C37.02 28.7502 37.31 29.0302 37.66 29.0302H40.35C40.89 29.0302 41.33 29.4702 41.33 30.0102V40.1102H29.76C29.53 39.5802 28.99 39.2002 28.37 39.2002H25.61V38.6002H25.96C26.32 38.6002 26.6 38.3102 26.6 37.9602C26.6 37.6002 26.31 37.3202 25.96 37.3202H25.61V36.7002H26.26C27.2 36.7002 27.96 35.9402 27.96 35.0002V34.3802H28.48C29.86 34.3802 30.99 33.2502 30.99 31.8702V30.0202C30.99 29.4802 31.43 29.0402 31.97 29.0402H34.66C35.02 29.0402 35.3 28.7502 35.3 28.4002C35.3 28.0402 35.01 27.7602 34.66 27.7602H31.97C30.72 27.7602 29.7 28.7802 29.7 30.0302V31.8802C29.7 32.5502 29.15 33.1002 28.48 33.1002H27.32H22.63H21.47C20.8 33.1002 20.25 32.5502 20.25 31.8802V31.1702H23.93C24.86 31.1702 25.62 30.4102 25.62 29.4802V22.7102C25.62 21.7802 24.86 21.0202 23.93 21.0202H20.98C21.92 19.4002 23.68 18.3102 25.69 18.3102H46.64C49.62 18.3102 52.05 20.7202 52.08 23.6902C51.23 23.2002 50.29 22.9602 49.37 22.9602C46.38 22.9602 43.95 25.3902 43.95 28.3802C43.95 31.3702 46.38 33.8002 49.37 33.8002C50.32 33.8002 51.26 33.5502 52.08 33.0702V40.1402L42.62 40.1202Z" fill="black"/>
</g>
<defs>
<clipPath id="clip0">
<rect width="68.55" height="68.56" fill="white"/>
</clipPath>
</defs>
</svg>
