<svg width="11" height="12" viewBox="0 0 11 12" fill="none" xmlns="http://www.w3.org/2000/svg">
<path d="M3.2535 1.1925C2.5392 1.38936 1.82974 1.60342 1.12575 1.8345C1.06147 1.85532 1.00433 1.89378 0.960836 1.9455C0.917343 1.99721 0.889249 2.0601 0.879754 2.127C0.464254 5.24475 1.42425 7.5195 2.5695 9.018C3.05439 9.65879 3.63256 10.2233 4.28475 10.6927C4.54425 10.8757 4.77375 11.0077 4.9545 11.0925C5.0445 11.1352 5.118 11.1637 5.17425 11.181C5.19885 11.1896 5.22422 11.1959 5.25 11.1997C5.27548 11.1956 5.30057 11.1893 5.325 11.181C5.382 11.1637 5.4555 11.1352 5.5455 11.0925C5.7255 11.0077 5.95575 10.875 6.21525 10.6927C6.86744 10.2233 7.44561 9.65879 7.9305 9.018C9.07575 7.52025 10.0358 5.24475 9.62025 2.127C9.61084 2.06007 9.58278 1.99714 9.53928 1.94541C9.49577 1.89368 9.43858 1.85525 9.37425 1.8345C8.886 1.67475 8.06175 1.4145 7.2465 1.19325C6.414 0.9675 5.64825 0.80025 5.25 0.80025C4.8525 0.80025 4.086 0.9675 3.2535 1.19325V1.1925ZM3.054 0.42C3.86775 0.19875 4.7325 0 5.25 0C5.7675 0 6.63225 0.19875 7.446 0.42C8.2785 0.645 9.11775 0.91125 9.61125 1.0725C9.81759 1.14064 10.0005 1.2656 10.139 1.43303C10.2775 1.60045 10.366 1.80355 10.3943 2.019C10.8413 5.37675 9.804 7.86525 8.5455 9.5115C8.01183 10.2157 7.3755 10.8359 6.65775 11.3513C6.40957 11.5296 6.14662 11.6864 5.87175 11.82C5.66175 11.919 5.436 12 5.25 12C5.064 12 4.839 11.919 4.62825 11.82C4.35339 11.6864 4.09043 11.5296 3.84225 11.3513C3.12452 10.8359 2.48819 10.2157 1.9545 9.5115C0.696004 7.86525 -0.341246 5.37675 0.105754 2.019C0.134019 1.80355 0.222486 1.60045 0.360992 1.43303C0.499497 1.2656 0.682423 1.14064 0.888754 1.0725C1.60515 0.837607 2.32711 0.620044 3.054 0.42V0.42Z" fill="black"/>
<path d="M7.39049 3.85919C7.42541 3.89403 7.45311 3.93541 7.47202 3.98097C7.49092 4.02653 7.50066 4.07537 7.50066 4.12469C7.50066 4.17402 7.49092 4.22286 7.47202 4.26842C7.45311 4.31398 7.42541 4.35536 7.39049 4.39019L5.14049 6.64019C5.10565 6.67512 5.06427 6.70282 5.01871 6.72173C4.97315 6.74063 4.92431 6.75036 4.87499 6.75036C4.82566 6.75036 4.77682 6.74063 4.73126 6.72173C4.6857 6.70282 4.64432 6.67512 4.60949 6.64019L3.48449 5.51519C3.44962 5.48033 3.42196 5.43894 3.40309 5.39338C3.38422 5.34783 3.37451 5.299 3.37451 5.24969C3.37451 5.20039 3.38422 5.15156 3.40309 5.10601C3.42196 5.06045 3.44962 5.01906 3.48449 4.98419C3.51935 4.94933 3.56074 4.92167 3.6063 4.9028C3.65185 4.88393 3.70068 4.87422 3.74999 4.87422C3.79929 4.87422 3.84812 4.88393 3.89367 4.9028C3.93923 4.92167 3.98062 4.94933 4.01549 4.98419L4.87499 5.84444L6.85949 3.85919C6.89432 3.82427 6.9357 3.79656 6.98126 3.77766C7.02682 3.75875 7.07566 3.74902 7.12499 3.74902C7.17431 3.74902 7.22315 3.75875 7.26871 3.77766C7.31427 3.79656 7.35565 3.82427 7.39049 3.85919V3.85919Z" fill="black"/>
</svg>
