<svg width="13" height="12" viewBox="0 0 13 12" fill="none" xmlns="http://www.w3.org/2000/svg">
<path d="M2.32749 11.48C2.26411 11.8352 2.61998 12.1128 2.9336 11.9544L6.50041 10.1497L10.0664 11.9544C10.38 12.1128 10.7359 11.8352 10.6725 11.4808L9.99816 7.69713L12.8597 5.01253C13.1279 4.76135 12.9897 4.30219 12.6306 4.25259L8.65106 3.69583L6.87659 0.234497C6.84279 0.164334 6.78946 0.105053 6.7228 0.0635441C6.65614 0.0220347 6.57888 0 6.50001 0C6.42113 0 6.34388 0.0220347 6.27721 0.0635441C6.21055 0.105053 6.15722 0.164334 6.12342 0.234497L4.34895 3.69663L0.369399 4.25339C0.0110932 4.30299 -0.127842 4.76215 0.139466 5.01333L3.00185 7.69793L2.32749 11.4816V11.48ZM6.31273 9.26661L3.31791 10.7817L3.88177 7.61634C3.89498 7.54347 3.88981 7.46853 3.86672 7.39809C3.84363 7.32765 3.80332 7.26388 3.74934 7.21237L1.38826 4.99653L4.68045 4.53577C4.74862 4.52563 4.81328 4.49938 4.86889 4.45926C4.9245 4.41913 4.9694 4.36634 4.99975 4.30539L6.49879 1.37921L7.99945 4.30539C8.0298 4.36634 8.0747 4.41913 8.13031 4.45926C8.18592 4.49938 8.25058 4.52563 8.31875 4.53577L11.6109 4.99573L9.24986 7.21157C9.19575 7.26316 9.15537 7.32707 9.13227 7.39766C9.10918 7.46825 9.10408 7.54335 9.11743 7.61634L9.68129 10.7817L6.68647 9.26661C6.62856 9.23721 6.56435 9.22188 6.49919 9.22188C6.43404 9.22188 6.37064 9.23721 6.31273 9.26661Z" fill="black"/>
</svg>
