<svg width="13" height="12" viewBox="0 0 13 12" fill="none" xmlns="http://www.w3.org/2000/svg">
<path d="M1.77442e-09 1.49946C1.77442e-09 1.10178 0.128404 0.720385 0.356964 0.439182C0.585524 0.157978 0.895517 0 1.21875 0H8.53125C8.85448 0 9.16448 0.157978 9.39304 0.439182C9.6216 0.720385 9.75 1.10178 9.75 1.49946V2.99892H10.5788C10.7614 2.99912 10.9416 3.0498 11.1061 3.14721C11.2707 3.24463 11.4153 3.38629 11.5294 3.56172L12.7327 5.41105C12.9058 5.67714 13.0001 6.00787 13 6.34872V8.49694C13 8.89463 12.8716 9.27602 12.643 9.55722C12.4145 9.83843 12.1045 9.9964 11.7812 9.9964H11.375C11.375 10.5266 11.2038 11.0352 10.899 11.4101C10.5943 11.785 10.181 11.9957 9.75 11.9957C9.31902 11.9957 8.9057 11.785 8.60095 11.4101C8.29621 11.0352 8.125 10.5266 8.125 9.9964H4.0625C4.06297 10.2629 4.02013 10.5268 3.9365 10.7726C3.85287 11.0185 3.73014 11.2412 3.57553 11.4279C3.42091 11.6145 3.23753 11.7612 3.03617 11.8594C2.8348 11.9576 2.61951 12.0052 2.40296 11.9995C2.18641 11.9939 1.97297 11.935 1.77517 11.8264C1.57738 11.7178 1.39924 11.5616 1.25121 11.3671C1.10318 11.1725 0.988257 10.9435 0.913197 10.6936C0.838136 10.4436 0.804452 10.1777 0.814125 9.91144C0.576102 9.80836 0.36995 9.61694 0.224123 9.36357C0.0782971 9.11021 -1.3611e-05 8.8074 1.77442e-09 8.49694L1.77442e-09 1.49946ZM1.05138 8.95278C1.19828 8.65688 1.40523 8.4131 1.65189 8.2454C1.89856 8.0777 2.17644 7.99184 2.45824 7.99628C2.74004 8.00072 3.01605 8.09529 3.25914 8.2707C3.50224 8.44612 3.70405 8.69634 3.84475 8.99676H8.34275C8.48567 8.69315 8.69072 8.44087 8.9375 8.26503V1.49946C8.9375 1.3669 8.8947 1.23977 8.81851 1.14603C8.74233 1.0523 8.63899 0.99964 8.53125 0.99964H1.21875C1.11101 0.99964 1.00767 1.0523 0.931488 1.14603C0.855301 1.23977 0.8125 1.3669 0.8125 1.49946V8.49694C0.812436 8.59315 0.834941 8.68733 0.877313 8.76819C0.919686 8.84905 0.980124 8.91314 1.05138 8.95278ZM9.75 7.99712C10.0352 7.99713 10.3155 8.08952 10.5625 8.26499C10.8095 8.44046 11.0146 8.69284 11.1573 8.99676H11.7812C11.889 8.99676 11.9923 8.94411 12.0685 8.85037C12.1447 8.75664 12.1875 8.6295 12.1875 8.49694V6.34772C12.1873 6.23429 12.1558 6.1243 12.0981 6.03583L10.8956 4.18649C10.8576 4.12796 10.8094 4.08067 10.7546 4.04814C10.6997 4.01561 10.6396 3.99867 10.5788 3.99856H9.75V7.99712ZM2.4375 8.99676C2.22201 8.99676 2.01535 9.10208 1.86298 9.28955C1.7106 9.47702 1.625 9.73128 1.625 9.9964C1.625 10.2615 1.7106 10.5158 1.86298 10.7033C2.01535 10.8907 2.22201 10.996 2.4375 10.996C2.65299 10.996 2.85965 10.8907 3.01202 10.7033C3.1644 10.5158 3.25 10.2615 3.25 9.9964C3.25 9.73128 3.1644 9.47702 3.01202 9.28955C2.85965 9.10208 2.65299 8.99676 2.4375 8.99676ZM9.75 8.99676C9.53451 8.99676 9.32785 9.10208 9.17548 9.28955C9.0231 9.47702 8.9375 9.73128 8.9375 9.9964C8.9375 10.2615 9.0231 10.5158 9.17548 10.7033C9.32785 10.8907 9.53451 10.996 9.75 10.996C9.96549 10.996 10.1722 10.8907 10.3245 10.7033C10.4769 10.5158 10.5625 10.2615 10.5625 9.9964C10.5625 9.73128 10.4769 9.47702 10.3245 9.28955C10.1722 9.10208 9.96549 8.99676 9.75 8.99676Z" fill="black"/>
</svg>
